<svg data-name="Layer 1" xmlns="http://www.w3.org/2000/svg" viewBox="0 0 500 500"><path d="M488.3 46.28h-50.67V22.57A22.8 22.8 0 0 0 414.81 0H378a22.8 22.8 0 0 0-22.82 22.57v23.71h-343a11.49 11.49 0 0 0-10.52 5.41 11.24 11.24 0 0 0 0 11.75 11.5 11.5 0 0 0 10.55 5.42h343v23.91a22.74 22.74 0 0 0 22.81 22.57h36.8a22.75 22.75 0 0 0 22.82-22.57V69.06h50.66a11.39 11.39 0 1 0 0-22.78zm-73.49 46.28H378v-70h36.8zM487.63 225.82H143.71V202a22.71 22.71 0 0 0-22.78-22.54h-36.7A22.72 22.72 0 0 0 61.39 202v23.86h-49.2a11.45 11.45 0 0 0-10.53 5.41 11.21 11.21 0 0 0 0 11.73 11.46 11.46 0 0 0 10.53 5.4h49.2v23.87a22.72 22.72 0 0 0 22.84 22.53h36.7a22.71 22.71 0 0 0 22.78-22.53v-23.91h343.92a11.48 11.48 0 0 0 10.53-5.4 11.21 11.21 0 0 0 0-11.73 11.47 11.47 0 0 0-10.53-5.41zM120.93 272h-36.7v-70h36.7zM487.63 418.06H276.69v-23.87a22.71 22.71 0 0 0-22.79-22.53h-36.74a22.71 22.71 0 0 0-22.79 22.53v23.87H12.19a11.46 11.46 0 0 0-10.53 5.4 11.21 11.21 0 0 0 0 11.73 11.45 11.45 0 0 0 10.53 5.41h182.18v23.87A22.77 22.77 0 0 0 217.16 487h36.74a22.76 22.76 0 0 0 22.79-22.53V440.6h210.94a11.47 11.47 0 0 0 10.53-5.41 11.21 11.21 0 0 0 0-11.73 11.48 11.48 0 0 0-10.53-5.4zm-233.57 46.2h-36.9v-70.07h36.74z" fill="#fff"/></svg>