<svg xmlns="http://www.w3.org/2000/svg" viewBox="0 0 367.2 367.2"><path d="M271.6 76C255.2 76 242 62.4 242 46.4V0H60c-5.6 0-10.4 4.8-10.4 10.4v346.4c0 5.6 4.8 10.4 10.4 10.4h247.6c5.6 0 10-4.8 10-10.4V76h-46zM136 185.2c-4.4 4-10.8 5.6-20 5.6h-13.2v20.4c0 12-14.4 12-14.4 0V156c0-6.4 2.8-8.8 9.2-8.8 8 0 24.8-.4 31.2 1.2 17.6 4.8 17.6 28.4 7.2 36.8zm79.2 9.2c-2.4 12.4-10.4 21.6-23.2 23.6l-27.6.8c-7.6 0-9.2-3.2-9.2-10.4V156c0-6.4 2.8-8.8 8.8-8.8 8.8 0 24-.8 31.6 1.2 18.4 4.8 23.6 28 19.6 46zm61.6-37.6c-1.2 1.2-2.8 1.6-5.2 1.6h-28.4v18.4h24c8.8 0 8.8 10.8 0 10.8h-24v23.6c0 10.4-9.2 10.4-12.4 6.8-1.2-1.6-2-4-2-6.8V156c0-6.4 2.8-8.8 8.8-8.8h34c8 0 8 7.2 5.2 9.6z"/><path d="M112.8 158h-9.6v22h-.4c10.4 0 25.6 2 25.6-11.2 0-8.8-6-10.8-15.6-10.8zM179.2 159.2h-9.6v48.4c6 0 16 .4 20.8-1.2 13.6-4.8 12.8-31.2 8-39.2-4.4-7.2-10.8-8-19.2-8zM271.6 58.4h33.6l-46-46V46c0 7.2 5.6 12.4 12.4 12.4z"/></svg>