<?xml version="1.0" encoding="utf-8"?>
<!-- Generator: Adobe Illustrator 22.1.0, SVG Export Plug-In . SVG Version: 6.00 Build 0)  -->
<svg version="1.1" id="Layer_1" xmlns="http://www.w3.org/2000/svg" xmlns:xlink="http://www.w3.org/1999/xlink" x="0px" y="0px"
	 viewBox="0 0 200 200" style="enable-background:new 0 0 200 200;" xml:space="preserve">
<style type="text/css">
	.st0{fill:#D21F39;}
	.st1{fill:#FFFFFF;}
</style>
<rect class="st0" width="200" height="200"/>
<g>
	<path class="st1" d="M44.3,115.2c1,0,1.9,0.2,2.9,0.3c0.9,0.1,1.9,0.3,2.8,0.3c4.9,0,9.2-2.3,9.2-7.7c0-7.7-10.1-6.9-10.1-11.1
		c0-1.7,1.6-2.2,3.1-2.2c2.2,0,3.5,0.7,5,2.3v-7.1c-0.3,0.5-0.9,0.9-1.6,0.9c-0.3,0-0.8-0.2-1.5-0.4c-0.7-0.1-1.6-0.3-2.7-0.3
		c-4.2,0-7.6,2-7.6,6.6c0,7.6,10.1,6.7,10.1,11.6c0,2.1-2.3,2.8-4,2.8c-2.7,0-5-0.7-6.7-3h-0.1v7.6h0.1
		C43.6,115.4,44,115.2,44.3,115.2z"/>
	<path class="st1" d="M120.3,112.9c0,0.8-0.1,1.6-1,2.2h7c-0.9-0.6-1-1.4-1-2.2V95.6h2.6c0.8,0,1.7,0,2.3,0.7v-5.2h-5v-7l-8.8,11.5
		h4.1V112.9z"/>
	<path class="st1" d="M143.6,115.9c3.2,0,6.1-1.5,7.9-3.9h0.1v3.1h5.2c-0.8-0.5-1-0.9-1-1.6V97.2c0-0.8,0.4-1.2,0.9-1.9
		c-0.5,0.1-1.1,0.1-1.6-0.1c-4.3-1.7-6.3-4.9-11.5-4.9c-7.6,0-12.8,6.1-12.8,13.4C130.8,110.7,136.6,115.9,143.6,115.9z M144.1,95.2
		c2.5,0,5,1.7,6.8,3.1v9.1c-1.5,2.3-4.1,3.6-6.9,3.6c-5.2,0-8.3-2.9-8.3-8C135.7,98,139.3,95.2,144.1,95.2z"/>
	<path class="st1" d="M63.5,112.9c0,0.8-0.1,1.6-1,2.2h7c-0.9-0.6-1-1.4-1-2.2V95.6H71c0.8,0,1.7,0,2.3,0.7v-5.2h-5v-7l-8.8,11.5
		h4.1V112.9z"/>
	<path class="st1" d="M75.6,115.1h7c-0.9-0.6-1-1.4-1-2.2V98.8c1.2-1.2,2.5-2.8,4.2-2.8c1,0,1.5,0,2.2,0.1v-6.3
		c-0.5,0.5-0.7,0.7-1.4,0.8c-2.6,0.4-4.5,1.3-5.4,3.4H81v-2.9h-5.3c0.9,0.6,1,1.4,1,2.2v19.6C76.7,113.7,76.6,114.5,75.6,115.1z"/>
	<path class="st1" d="M101.4,115.9c3.2,0,6.1-1.5,7.9-3.9h0.1v3.1h5.2c-0.8-0.5-1-0.9-1-1.6V97.2c0-0.8,0.4-1.2,0.9-1.9
		c-0.5,0.1-1.1,0.1-1.6-0.1c-4.3-1.7-6.3-4.9-11.5-4.9c-7.6,0-12.8,6.1-12.8,13.4C88.6,110.7,94.4,115.9,101.4,115.9z M101.9,95.2
		c2.5,0,5,1.7,6.8,3.1v9.1c-1.5,2.3-4.1,3.6-6.9,3.6c-5.2,0-8.3-2.9-8.3-8C93.5,98,97.1,95.2,101.9,95.2z"/>
</g>
</svg>
