<?xml version="1.0" encoding="utf-8"?>
<!-- Generator: Adobe Illustrator 22.1.0, SVG Export Plug-In . SVG Version: 6.00 Build 0)  -->
<svg version="1.1" id="Layer_1" xmlns="http://www.w3.org/2000/svg" xmlns:xlink="http://www.w3.org/1999/xlink" x="0px" y="0px"
	 viewBox="0 0 200 200" style="enable-background:new 0 0 200 200;" xml:space="preserve">
<style type="text/css">
	.st0{fill:#FFFFFF;}
	.st1{fill:none;stroke:#FDFFFE;stroke-width:5;stroke-miterlimit:10;}
</style>
<path class="st0" d="M44.4,115.2c1,0,1.9,0.2,2.9,0.3c0.9,0.1,1.9,0.3,2.8,0.3c4.8,0,9.1-2.3,9.1-7.7c0-7.6-10.1-6.9-10.1-11.1
	c0-1.7,1.6-2.2,3.1-2.2c2.2,0,3.5,0.7,5,2.3v-7c-0.3,0.5-0.9,0.9-1.6,0.9c-0.3,0-0.8-0.2-1.5-0.4c-0.7-0.1-1.6-0.3-2.7-0.3
	c-4.2,0-7.6,2-7.6,6.6c0,7.6,10.1,6.7,10.1,11.6c0,2.1-2.3,2.8-4,2.8c-2.7,0-5-0.7-6.7-3h-0.1v7.5h0.1
	C43.6,115.3,44,115.2,44.4,115.2z"/>
<path class="st0" d="M120.2,112.9c0,0.8-0.1,1.6-1,2.2h6.9c-0.9-0.6-1-1.4-1-2.2V95.6h2.6c0.8,0,1.7,0,2.3,0.7v-5.2h-5v-7l-8.9,11.5
	h4.1V112.9z"/>
<path class="st0" d="M143.4,115.9c3.2,0,6.1-1.5,7.9-3.9h0.1v3.1h5.2c-0.8-0.5-1-0.9-1-1.6V97.2c0-0.8,0.4-1.2,0.9-1.9
	c-0.5,0.1-1.1,0.1-1.6-0.1c-4.3-1.7-6.3-4.9-11.5-4.9c-7.5,0-12.8,6.1-12.8,13.4C130.7,110.7,136.4,115.9,143.4,115.9z M143.9,95.2
	c2.5,0,5,1.7,6.8,3.1v9.1c-1.5,2.3-4.1,3.6-6.9,3.6c-5.2,0-8.3-2.9-8.3-8C135.6,98,139.1,95.2,143.9,95.2z"/>
<path class="st0" d="M63.4,112.9c0,0.8-0.1,1.6-1,2.2h6.9c-0.9-0.6-1-1.4-1-2.2V95.6h2.6c0.8,0,1.7,0,2.3,0.7v-5.2h-5v-7l-8.8,11.5
	h4.1L63.4,112.9L63.4,112.9z"/>
<path class="st0" d="M75.6,115.1h6.9c-0.9-0.6-1-1.4-1-2.2V98.8c1.2-1.2,2.4-2.8,4.2-2.8c1,0,1.5,0,2.2,0.1v-6.3
	c-0.5,0.5-0.7,0.7-1.4,0.8C83.9,91,82,91.9,81.1,94H81v-2.9h-5.3c0.9,0.6,1,1.4,1,2.2v19.6C76.6,113.7,76.5,114.5,75.6,115.1z"/>
<path class="st0" d="M101.3,115.9c3.2,0,6.1-1.5,7.9-3.9h0.1v3.1h5.2c-0.8-0.5-1-0.9-1-1.6V97.2c0-0.8,0.4-1.2,0.9-1.9
	c-0.5,0.1-1.1,0.1-1.6-0.1c-4.3-1.7-6.3-4.9-11.5-4.9c-7.5,0-12.8,6.1-12.8,13.4C88.5,110.7,94.3,115.9,101.3,115.9z M101.8,95.2
	c2.5,0,5,1.7,6.8,3.1v9.1c-1.5,2.3-4.1,3.6-6.9,3.6c-5.2,0-8.3-2.9-8.3-8C93.4,98,97,95.2,101.8,95.2z"/>
<rect x="2.6" y="2.6" class="st1" width="194.8" height="194.8"/>
</svg>
