<svg width="0" height="0" style="display:none">
	  <symbol id="ArrowLeft" xmlns="http://www.w3.org/2000/svg" viewBox="0 0 500 500"><polygon fill="currentColor" points="500 229.15 80.57 229.15 199.28 110.43 169.61 80.76 0.02 250.35 169.61 419.94 199.28 390.26 80.57 271.55 500 271.55 500 229.15"/></symbol>
  
    <symbol id="Config" xmlns="http://www.w3.org/2000/svg" viewBox="0 0 500 500"><path d="M488.3 46.28h-50.67V22.57A22.8 22.8 0 0 0 414.81 0H378a22.8 22.8 0 0 0-22.82 22.57v23.71h-343a11.49 11.49 0 0 0-10.52 5.41 11.24 11.24 0 0 0 0 11.75 11.5 11.5 0 0 0 10.55 5.42h343v23.91a22.74 22.74 0 0 0 22.81 22.57h36.8a22.75 22.75 0 0 0 22.82-22.57V69.06h50.66a11.39 11.39 0 1 0 0-22.78zm-73.49 46.28H378v-70h36.8zM487.63 225.82H143.71V202a22.71 22.71 0 0 0-22.78-22.54h-36.7A22.72 22.72 0 0 0 61.39 202v23.86h-49.2a11.45 11.45 0 0 0-10.53 5.41 11.21 11.21 0 0 0 0 11.73 11.46 11.46 0 0 0 10.53 5.4h49.2v23.87a22.72 22.72 0 0 0 22.84 22.53h36.7a22.71 22.71 0 0 0 22.78-22.53v-23.91h343.92a11.48 11.48 0 0 0 10.53-5.4 11.21 11.21 0 0 0 0-11.73 11.47 11.47 0 0 0-10.53-5.41zM120.93 272h-36.7v-70h36.7zM487.63 418.06H276.69v-23.87a22.71 22.71 0 0 0-22.79-22.53h-36.74a22.71 22.71 0 0 0-22.79 22.53v23.87H12.19a11.46 11.46 0 0 0-10.53 5.4 11.21 11.21 0 0 0 0 11.73 11.45 11.45 0 0 0 10.53 5.41h182.18v23.87A22.77 22.77 0 0 0 217.16 487h36.74a22.76 22.76 0 0 0 22.79-22.53V440.6h210.94a11.47 11.47 0 0 0 10.53-5.41 11.21 11.21 0 0 0 0-11.73 11.48 11.48 0 0 0-10.53-5.4zm-233.57 46.2h-36.9v-70.07h36.74z" fill="currentColor"/></symbol>
  
    <symbol id="Cross" xmlns="http://www.w3.org/2000/svg" viewBox="0 0 500 500"><path fill="currentColor" d="M-1.33 42.84L41.855-.341l458.155 458.155-43.183 43.183z"/><path fill="currentColor" d="M-1.33 457.813L456.827-.342 500.01 42.84 41.854 500.996z"/></symbol>

    <symbol id="FloorMenu" xmlns="http://www.w3.org/2000/svg" viewBox="0 0 500 500"><g fill="currentColor"><path d="M0 152.8l251.66 145.8 250.02-145.8L250.02 7 0 152.8"/><path fill-opacity=".55" d="M251.71 435.82L48.48 316.27 0 344.97 251.66 493l250.02-148.03-48.42-28.48-201.55 119.33"/><path fill-opacity=".75" d="M251.71 338.62L48.48 219.07 0 247.77 251.66 395.8l250.02-148.03-48.42-28.48-201.55 119.33"/></g></symbol>
  
    <symbol id="Message" xmlns="http://www.w3.org/2000/svg" viewBox="0 0 437.212 437.212"><path fill="currentColor" d="M404.812 41.206h-300c-18 0-32.4 14.8-32.4 32.4v186.4c0 18 14.8 32.4 32.4 32.4h206.8l46.8 47.2c2 2 4.4 3.2 7.2 3.2 5.6 0 10.4-4.4 10.4-10.4v-40h28.8c18 0 32.4-14.8 32.4-32.4v-186.4c0-18-14.8-32.4-32.4-32.4zm-254 160.4c-16.4 0-30-13.6-30-30s13.6-30 30-30 30 13.6 30 30-13.2 30-30 30zm105.2 0c-16.4 0-30-13.6-30-30s13.6-30 30-30 30 13.6 30 30-13.6 30-30 30zm104.8 0c-16.4 0-30-13.6-30-30s13.6-30 30-30 30 13.6 30 30-13.6 30-30 30z"/>
      <path fill="currentColor" d="M54.012 260.806v-63.6h-32.8c-11.6 0-21.2 9.6-21.2 21.2v122.4c-.4 12.4 9.2 22 21.2 22h18.8v26.4c0 3.6 3.2 6.8 6.8 6.8 2 0 3.6-.8 4.8-2l30.8-30.8h136c11.6 0 21.2-9.6 21.2-21.2v-30.4h-134.8c-28 0-50.8-22.8-50.8-50.8z"/></symbol>
  
    <symbol id="Info" xmlns="http://www.w3.org/2000/svg" viewBox="0 0 330 330"><path fill="currentColor" d="M165 0C74.019 0 0 74.02 0 165.001 0 255.982 74.019 330 165 330s165-74.018 165-164.999S255.981 0 165 0zm0 300c-74.44 0-135-60.56-135-134.999S90.56 30 165 30s135 60.562 135 135.001C300 239.44 239.439 300 165 300z"/><path fill="currentColor" d="M164.998 70c-11.026 0-19.996 8.976-19.996 20.009 0 11.023 8.97 19.991 19.996 19.991 11.026 0 19.996-8.968 19.996-19.991 0-11.033-8.97-20.009-19.996-20.009zM165 140c-8.284 0-15 6.716-15 15v90c0 8.284 6.716 15 15 15 8.284 0 15-6.716 15-15v-90c0-8.284-6.716-15-15-15z"/></symbol>
  
    <symbol id="Play" xmlns="http://www.w3.org/2000/svg" viewBox="0 0 512 512"><path fill="currentColor" d="M256 0C114.617 0 0 114.615 0 256s114.617 256 256 256 256-114.615 256-256S397.383 0 256 0zm88.48 269.57l-128 80a16.008 16.008 0 0 1-16.238.422A15.994 15.994 0 0 1 192 336V176c0-5.82 3.156-11.172 8.242-13.992a15.957 15.957 0 0 1 16.238.422l128 80c4.676 2.93 7.52 8.055 7.52 13.57s-2.844 10.641-7.52 13.57z"/></symbol>
  
    <symbol id="PDF" xmlns="http://www.w3.org/2000/svg" viewBox="0 0 367.2 367.2"><path fill="currentColor" d="M271.6 76C255.2 76 242 62.4 242 46.4V0H60c-5.6 0-10.4 4.8-10.4 10.4v346.4c0 5.6 4.8 10.4 10.4 10.4h247.6c5.6 0 10-4.8 10-10.4V76h-46zM136 185.2c-4.4 4-10.8 5.6-20 5.6h-13.2v20.4c0 12-14.4 12-14.4 0V156c0-6.4 2.8-8.8 9.2-8.8 8 0 24.8-.4 31.2 1.2 17.6 4.8 17.6 28.4 7.2 36.8zm79.2 9.2c-2.4 12.4-10.4 21.6-23.2 23.6l-27.6.8c-7.6 0-9.2-3.2-9.2-10.4V156c0-6.4 2.8-8.8 8.8-8.8 8.8 0 24-.8 31.6 1.2 18.4 4.8 23.6 28 19.6 46zm61.6-37.6c-1.2 1.2-2.8 1.6-5.2 1.6h-28.4v18.4h24c8.8 0 8.8 10.8 0 10.8h-24v23.6c0 10.4-9.2 10.4-12.4 6.8-1.2-1.6-2-4-2-6.8V156c0-6.4 2.8-8.8 8.8-8.8h34c8 0 8 7.2 5.2 9.6z"/><path fill="currentColor" d="M112.8 158h-9.6v22h-.4c10.4 0 25.6 2 25.6-11.2 0-8.8-6-10.8-15.6-10.8zM179.2 159.2h-9.6v48.4c6 0 16 .4 20.8-1.2 13.6-4.8 12.8-31.2 8-39.2-4.4-7.2-10.8-8-19.2-8zM271.6 58.4h33.6l-46-46V46c0 7.2 5.6 12.4 12.4 12.4z"/></symbol>

    <symbol id="Email" xmlns="http://www.w3.org/2000/svg" viewBox="0 0 485.211 485.211">
        <path d="M485.211 363.906c0 10.637-2.992 20.498-7.785 29.174L324.225 221.67l151.54-132.584c5.895 9.355 9.446 20.344 9.446 32.219v242.601zM242.606 252.793l210.863-184.5c-8.653-4.737-18.397-7.642-28.908-7.642H60.651c-10.524 0-20.271 2.905-28.889 7.642l210.844 184.5zm58.787-11.162l-48.809 42.734a15.145 15.145 0 0 1-9.978 3.729c-3.57 0-7.125-1.242-9.98-3.729l-48.82-42.736L28.667 415.23c9.299 5.834 20.197 9.329 31.983 9.329h363.911c11.784 0 22.687-3.495 31.983-9.329L301.393 241.631zM9.448 89.085C3.554 98.44 0 109.429 0 121.305v242.602c0 10.637 2.978 20.498 7.789 29.174l153.183-171.44L9.448 89.085z"/>
    </symbol>

    <symbol id="Download" xmlns="http://www.w3.org/2000/svg" viewBox="0 0 29.978 29.978">
        <path d="M25.462 19.105v6.848H4.515v-6.848H.489v8.861c0 1.111.9 2.012 2.016 2.012h24.967c1.115 0 2.016-.9 2.016-2.012v-8.861h-4.026zM14.62 18.426l-5.764-6.965s-.877-.828.074-.828h3.248V9.217.494S12.049 0 12.793 0h4.572c.536 0 .524.416.524.416V10.424h2.998c1.154 0 .285.867.285.867s-4.904 6.51-5.588 7.193c-.492.495-.964-.058-.964-.058z"/>
    </symbol>

    <symbol id="Print" xmlns="http://www.w3.org/2000/svg" viewBox="0 0 16 16">
      <path d="M4 12.5v3h8v-5H4v2zm1-1h6v1H5v-1zm0 2h6v1H5v-1zM12 3.5v-3H4v5h8z"/>
      <path d="M14 3.5h-1v3H3v-3H2c-1 0-2 1-2 2v5c0 1 1 2 2 2h1v-3h10v3h1c1 0 2-1 2-2v-5c0-1-1-2-2-2z"/>
    </symbol>
  
</svg>